<?xml version="1.0" encoding="UTF-8" standalone="no"?>
<svg width="24px" height="48px" viewBox="0 0 24 48" version="1.1" xmlns="http://www.w3.org/2000/svg" xmlns:xlink="http://www.w3.org/1999/xlink" xmlns:sketch="http://www.bohemiancoding.com/sketch/ns">
    <g id="Page 1" stroke="none" stroke-width="1" fill="none" fill-rule="evenodd">
        <g id="Markdown On" transform="translate(3.000000, 30.000000)" fill="#78B2F2">
            <path d="M1,1 L1,10 L17,10 L17,1 L1,1 Z M0,0 L18,0 L18,11 L0,11 Z M3,8 L4.75,8 L4.75,5.13235294 L6.5,6.97058824 L8.25,5.13235294 L8.25,8 L10,8 L10,3 L8.25,3 L6.5,4.83823529 L4.75,3 L3,3 Z M13.5,8 L16,5.57352941 L14.3333333,5.57352941 L14.3333333,3 L12.6666667,3 L12.6666667,5.57352941 L11,5.57352941 Z M13.5,8" id="Rectangle"></path>
        </g>
        <g id="Markdown" transform="translate(3.000000, 6.000000)" fill="#BBBBBB">
            <path d="M1,1 L1,10 L17,10 L17,1 L1,1 Z M0,0 L18,0 L18,11 L0,11 Z M3,8 L4.75,8 L4.75,5.13235294 L6.5,6.97058824 L8.25,5.13235294 L8.25,8 L10,8 L10,3 L8.25,3 L6.5,4.83823529 L4.75,3 L3,3 Z M13.5,8 L16,5.57352941 L14.3333333,5.57352941 L14.3333333,3 L12.6666667,3 L12.6666667,5.57352941 L11,5.57352941 Z M13.5,8" id="Rectangle"></path>
        </g>
    </g>
</svg>