<?xml version="1.0" encoding="UTF-8" standalone="no"?>
<svg width="24px" height="48px" viewBox="0 0 24 48" version="1.1" xmlns="http://www.w3.org/2000/svg" xmlns:xlink="http://www.w3.org/1999/xlink" xmlns:sketch="http://www.bohemiancoding.com/sketch/ns">
    <title> Markdown</title>
    <description>Created with Sketch (http://www.bohemiancoding.com/sketch)</description>
    <defs></defs>
    <g id="Page 1" stroke="none" stroke-width="1" fill="none" fill-rule="evenodd">
        <path d="M4.37019231,18 C3.61466827,18 3,17.3691562 3,16.59375 L3,7.40625 C3,6.63084375 3.61466827,6 4.37019231,6 L19.6298077,6 C20.3853317,6 21,6.63084375 21,7.40625 L21,16.59375 C21,17.3691562 20.3853317,18 19.6298077,18 L4.37019231,18 Z M7.75,15 L7.75,11.5588235 L9.5,13.7647059 L11.25,11.5588235 L11.25,15 L13,15 L13,9 L11.25,9 L9.5,11.2058824 L7.75,9 L6,9 L6,15 L7.75,15 L7.75,15 Z M19,11.9565217 L17.3333333,11.9565217 L17.3333333,9 L15.6666667,9 L15.6666667,11.9565217 L14,11.9565217 L16.5,15 L19,11.9565217 L19,11.9565217 Z M19,11.9565217" id="Markdown" fill="#BBBBBB"></path>
        <path d="M4.37019231,41 C3.61466827,41 3,40.3691562 3,39.59375 L3,30.40625 C3,29.6308438 3.61466827,29 4.37019231,29 L19.6298077,29 C20.3853317,29 21,29.6308438 21,30.40625 L21,39.59375 C21,40.3691562 20.3853317,41 19.6298077,41 L4.37019231,41 Z M7.75,38 L7.75,34.5588235 L9.5,36.7647059 L11.25,34.5588235 L11.25,38 L13,38 L13,32 L11.25,32 L9.5,34.2058824 L7.75,32 L6,32 L6,38 L7.75,38 L7.75,38 Z M19,34.9565217 L17.3333333,34.9565217 L17.3333333,32 L15.6666667,32 L15.6666667,34.9565217 L14,34.9565217 L16.5,38 L19,34.9565217 L19,34.9565217 Z M19,34.9565217" id="Markdown On" fill="#78B2F2"></path>
    </g>
</svg>